<svg xmlns="http://www.w3.org/2000/svg" viewBox="0 0 512 512" role="img" aria-hidden="true">
	<path d="M256 104c-29.9-19.2-64.2-24-112-24H80c-17.7 0-32 14.3-32 32v288c0 17.7 14.3 32 32 32h64c47.8 0 82.1 4.8 112 24z" fill="none" stroke="#1f4e79" stroke-width="24" stroke-linejoin="round"/>
	<path d="M256 104c29.9-19.2 64.2-24 112-24h48c17.7 0 32 14.3 32 32v288c0 17.7-14.3 32-32 32h-64c-47.8 0-82.1 4.8-112 24z" fill="none" stroke="#1f4e79" stroke-width="24" stroke-linejoin="round"/>
	<path d="M256 96v320" stroke="#1f4e79" stroke-width="24" stroke-linecap="round"/>
</svg>